<?xml version="1.0" encoding="UTF-8"?><!DOCTYPE svg PUBLIC "-//W3C//DTD SVG 1.1//EN" "http://www.w3.org/Graphics/SVG/1.1/DTD/svg11.dtd"><svg xmlns="http://www.w3.org/2000/svg" xmlns:xlink="http://www.w3.org/1999/xlink"><symbol id="m-html-mobile" viewBox="0 0 154.4 195.3">
<path stroke="#231F20" stroke-miterlimit="10" d="M78,0.6l-0.8-0.1l-76.7,8v140.6l76.7,45.6l76.7-45.6V8.5L78,0.6z M143.9,143.4
	l-66.7,39.7l-66.7-39.7V85.8l66.4,39.5l0.1,7.2l-45.5-27.1l-0.1,7l45.7,27.5l0.1,7.3l-45.7-27.2l-0.1,7l45.7,27.5l46.2-27.6v-7
	l-0.1,0v-2.4v-2.9V97.1l20.6-12.3V143.4z M143.8,77.3l-18.2,10.7l-8.4,5L77,69.2l-0.1,7l34.3,20.4l-0.3,0.2l-0.7,0.4l-4.9,2.9
	L77,83.2l-0.1,7l22.4,13.3l-5.3,3.5l-0.1,0.1L77,97.1l-0.1,7l11.1,6.5l-11.3,6.8l-66-39.3l66.1-39.8v0L143.8,77.3z M143.9,70.4
	l-67-39.5v0l0,0l0,0v0L10.5,70.3V17.6l66.7-7l66.7,7V70.4z"/>
</symbol><symbol id="m-icon-facebook" viewBox="0 0 8.7 18.9">
<path d="M6.3,3.4c0.8,0,1.6,0,2.4,0c0-1.1,0-2.2,0-3.4c-1,0-1.9,0-2.9,0C2.7,0.2,1.5,2.4,1.9,6.1H0v3.5h2c0,3.1,0,6.2,0,9.3
	c1.3,0,2.6,0,3.8,0c0-3.1,0-6.2,0-9.3h2.9V6.1H5.8C5.8,5.1,5.8,3.7,6.3,3.4z"/>
</symbol><symbol id="m-icon-twitter" viewBox="0 0 17.5 14.7">
<g id="W6EeEF_1_">
	<g>
		<path d="M11.3,0.2C13-0.3,14.4,0.4,15,1.3c0.7-0.2,1.4-0.5,2.1-0.7c0,0.8-0.5,1.5-0.9,1.7c0.7,0.2,1.3-0.5,1.3-0.5
			c-0.2,1-1,1.7-1.6,2c-0.2,6.6-3.3,11-10.4,10.8c-0.5,0,0.1,0-0.5,0c-0.4,0-4.3-0.4-5-1.8c2.3,0.2,4-0.4,4.8-1.1
			c-1-0.3-2.8-0.5-3.1-2.9C2.1,8.9,2.3,9,3,8.9C1.8,8.1,0.4,7.4,0.5,5.2c0.3,0.3,1.1,0.5,1.4,0.5c-0.7-0.2-2-3.3-0.9-4.8
			c1.9,1.8,3.8,3.5,7.4,3.7C8.5,2.3,9.5,0.8,11.3,0.2z"/>
	</g>
</g>
</symbol><symbol id="m-icon-youtube" viewBox="0 0 20 14">
<path d="M17.1,0H2.8C1.3,0,0,1.3,0,2.8v8.3C0,12.7,1.3,14,2.8,14h14.3c1.6,0,2.8-1.3,2.8-2.8V2.8C20,1.3,18.7,0,17.1,0z M7,10.4V3.6
	L13.8,7L7,10.4z"/>
</symbol></svg>